ffmpeg started on 2016-11-24 at 17:20:37
Report written to "Output/NVENCh264/results/ffmpeg/old_town_cross_2160p50hp11000k.log"
Command line:
Tools/ffmpeg/ffmpeg -benchmark -y -i Input/y4m/old_town_cross_2160p50.y4m -c:v h264_nvenc -preset hp -b:v 11000k -an Output/NVENCh264/encoded/old_town_cross_2160p50hp11000k.mkv
ffmpeg version N-82227-gdb23fde Copyright (c) 2000-2016 the FFmpeg developers
  built with gcc 5.4.0 (Ubuntu 5.4.0-6ubuntu1~16.04.2) 20160609
  configuration: --prefix=/home/jaroslav/ffmpeg_build --pkg-config-flags=--static --extra-cflags=-I/home/jaroslav/ffmpeg_build/include --extra-ldflags=-L/home/jaroslav/ffmpeg_build/lib --bindir=/home/jaroslav/bin --enable-gpl --enable-libass --enable-libfdk-aac --enable-libfreetype --enable-libmp3lame --enable-libopus --enable-libtheora --enable-libvorbis --enable-libvpx --enable-libx264 --enable-libx265 --enable-nvenc --enable-libmfx --enable-libxvid --enable-libgsm --enable-libopencore-amrnb --enable-version3 --enable-nonfree
  libavutil      55. 35.100 / 55. 35.100
  libavcodec     57. 66.101 / 57. 66.101
  libavformat    57. 57.100 / 57. 57.100
  libavdevice    57.  2.100 / 57.  2.100
  libavfilter     6. 66.100 /  6. 66.100
  libswscale      4.  3.100 /  4.  3.100
  libswresample   2.  4.100 /  2.  4.100
  libpostproc    54.  2.100 / 54.  2.100
Input #0, yuv4mpegpipe, from 'Input/y4m/old_town_cross_2160p50.y4m':
  Duration: 00:00:10.00, start: 0.000000, bitrate: 4976642 kb/s
    Stream #0:0: Video: rawvideo (I420 / 0x30323449), yuv420p(progressive), 3840x2160, SAR 1:1 DAR 16:9, 50 fps, 50 tbr, 50 tbn, 50 tbc
Output #0, matroska, to 'Output/NVENCh264/encoded/old_town_cross_2160p50hp11000k.mkv':
  Metadata:
    encoder         : Lavf57.57.100
    Stream #0:0: Video: h264 (h264_nvenc) (Main) (H264 / 0x34363248), yuv420p, 3840x2160 [SAR 1:1 DAR 16:9], q=-1--1, 11000 kb/s, 50 fps, 1k tbn, 50 tbc
    Metadata:
      encoder         : Lavc57.66.101 h264_nvenc
    Side data:
      cpb: bitrate max/min/avg: 0/0/11000000 buffer size: 22000000 vbv_delay: -1
Stream mapping:
  Stream #0:0 -> #0:0 (rawvideo (native) -> h264 (h264_nvenc))
Press [q] to stop, [?] for help
frame=   20 fps=0.0 q=0.0 size=       0kB time=00:00:00.00 bitrate=N/A speed=   0x    frame=   38 fps= 36 q=38.0 size=       1kB time=00:00:00.14 bitrate=  41.6kbits/s speed=0.135x    frame=   56 fps= 36 q=35.0 size=       1kB time=00:00:00.50 bitrate=  11.7kbits/s speed=0.323x    frame=   74 fps= 36 q=33.0 size=       1kB time=00:00:00.86 bitrate=   6.8kbits/s speed=0.416x    frame=   92 fps= 36 q=33.0 size=       1kB time=00:00:01.22 bitrate=   4.8kbits/s speed=0.472x    frame=  110 fps= 35 q=33.0 size=       1kB time=00:00:01.58 bitrate=   3.7kbits/s speed=0.51x    frame=  128 fps= 35 q=33.0 size=       1kB time=00:00:01.94 bitrate=   3.0kbits/s speed=0.537x    frame=  146 fps= 35 q=33.0 size=       1kB time=00:00:02.30 bitrate=   2.5kbits/s speed=0.558x    frame=  164 fps= 35 q=33.0 size=       1kB time=00:00:02.66 bitrate=   2.2kbits/s speed=0.574x    frame=  182 fps= 35 q=33.0 size=       1kB time=00:00:03.02 bitrate=   1.9kbits/s speed=0.587x    frame=  200 fps= 35 q=33.0 size=       1kB time=00:00:03.38 bitrate=   1.7kbits/s speed=0.598x    frame=  218 fps= 35 q=33.0 size=       1kB time=00:00:03.74 bitrate=   1.6kbits/s speed=0.606x    frame=  236 fps= 35 q=33.0 size=       1kB time=00:00:04.10 bitrate=   1.4kbits/s speed=0.614x    frame=  253 fps= 35 q=33.0 size=    5123kB time=00:00:04.44 bitrate=9450.0kbits/s speed=0.618x    frame=  271 fps= 35 q=33.0 size=    5123kB time=00:00:04.80 bitrate=8741.4kbits/s speed=0.624x    frame=  289 fps= 35 q=33.0 size=    6228kB time=00:00:05.16 bitrate=9886.3kbits/s speed=0.628x    frame=  307 fps= 35 q=34.0 size=    6228kB time=00:00:05.52 bitrate=9241.7kbits/s speed=0.633x    frame=  325 fps= 35 q=34.0 size=    6228kB time=00:00:05.88 bitrate=8676.0kbits/s speed=0.637x    frame=  343 fps= 35 q=33.0 size=    6228kB time=00:00:06.24 bitrate=8175.5kbits/s speed=0.64x    frame=  361 fps= 35 q=33.0 size=    6228kB time=00:00:06.60 bitrate=7729.6kbits/s speed=0.643x    frame=  379 fps= 35 q=33.0 size=    6228kB time=00:00:06.96 bitrate=7329.9kbits/s speed=0.646x    frame=  397 fps= 35 q=34.0 size=    6228kB time=00:00:07.32 bitrate=6969.4kbits/s speed=0.648x    frame=  415 fps= 35 q=33.0 size=    6228kB time=00:00:07.68 bitrate=6642.8kbits/s speed=0.651x    frame=  433 fps= 35 q=33.0 size=    6228kB time=00:00:08.04 bitrate=6345.4kbits/s speed=0.653x    frame=  451 fps= 35 q=33.0 size=    6228kB time=00:00:08.40 bitrate=6073.5kbits/s speed=0.655x    frame=  469 fps= 35 q=33.0 size=    6228kB time=00:00:08.76 bitrate=5823.9kbits/s speed=0.657x    frame=  477 fps= 34 q=33.0 size=   11369kB time=00:00:08.92 bitrate=10439.9kbits/s speed=0.642x    frame=  484 fps= 34 q=33.0 size=   11369kB time=00:00:09.06 bitrate=10278.6kbits/s speed=0.629x    frame=  500 fps= 34 q=33.0 Lsize=   12908kB time=00:00:09.98 bitrate=10594.4kbits/s speed=0.669x    
video:12903kB audio:0kB subtitle:0kB other streams:0kB global headers:0kB muxing overhead: 0.036403%
bench: utime=1.124s
bench: maxrss=996968kB
